<svg width="24" height="25" viewBox="0 0 24 25" fill="none" xmlns="http://www.w3.org/2000/svg">
<path d="M16.3406 1.22444C14.6573 0.264614 9.37045 0.252693 7.68061 1.2237C5.99076 2.19471 10.1809 7.95873 9.54725 8.32286C8.91356 8.68699 5.99259 2.19157 4.35555 3.13224C2.71851 4.0729 3.65014 8.77847 0.598374 10.4586C-2.45339 12.1388 7.16098 11.8413 7.16098 12.5578C7.16097 13.2742 0.0343441 12.5272 0.028 14.4156C0.0216559 16.304 2.71841 20.9443 4.38506 21.8946C6.05171 22.8449 8.95148 16.3897 9.58517 16.7538C10.2189 17.1179 6.04383 22.8424 7.68554 23.7911C9.32725 24.7398 14.7085 24.7325 16.3456 23.7919C17.9826 22.8512 13.7851 17.0999 14.422 16.7301C15.059 16.3603 17.9808 22.8543 19.6706 21.8833C21.3605 20.9123 23.9937 16.3086 24 14.4202C24.0063 12.5318 16.8875 13.2765 16.8875 12.5407C16.8875 11.8049 23.9982 12.542 23.9982 10.6C23.9982 8.65797 21.3046 4.07677 19.6675 3.13611C18.0305 2.19545 15.0859 8.66732 14.4522 8.30319C13.8185 7.93907 18.024 2.18427 16.3406 1.22444Z" fill="#27C9A0"/>
</svg>
